<svg xmlns="http://www.w3.org/2000/svg" viewBox="0 0 232.94 31.81"><defs><style>.cls-1{fill:#005cff;}</style></defs><g id="Layer_2" data-name="Layer 2"><g id="Layer_1-2" data-name="Layer 1"><path d="M71.32,3.75V28.06H68.86V8.61L59.31,25H58.09L48.54,8.72V28.06H46.08V3.75H48.2l10.55,18,10.45-18Z"/><path d="M87.44,19.65v8.41H84.91V19.65L75.19,3.75h2.74L86.26,17.4,94.6,3.75h2.56Z"/><path class="cls-1" d="M114.1,22.43H101.94l-2.39,5.63H94.89L105.83,3.75h4.45l11,24.31h-4.72Zm-1.5-3.54L108,8.26l-4.55,10.63Z"/><path class="cls-1" d="M125.21,3.75h10.62c7.89,0,13.27,4.86,13.27,12.15s-5.38,12.16-13.27,12.16H125.21Zm10.42,20.49c5.41,0,8.92-3.3,8.92-8.34S141,7.57,135.63,7.57h-5.91V24.24Z"/><path class="cls-1" d="M175.22,3.75,164.63,28.06h-4.45L149.56,3.75h4.89l8.09,18.75L170.7,3.75Z"/><path class="cls-1" d="M178.66,3.75h4.51V28.06h-4.51Z"/><path class="cls-1" d="M187.86,15.9c0-7.25,5.56-12.5,13-12.5a12.3,12.3,0,0,1,9.61,4.07l-2.91,2.74a8.54,8.54,0,0,0-6.5-2.85,8.3,8.3,0,0,0-8.68,8.54,8.31,8.31,0,0,0,8.68,8.55,8.44,8.44,0,0,0,6.5-2.89l2.91,2.78a12.32,12.32,0,0,1-9.65,4.06C193.42,28.4,187.86,23.16,187.86,15.9Z"/><path class="cls-1" d="M232.94,24.27v3.79H214.71V3.75h17.75V7.54H219.23v6.31H231v3.72H219.23v6.7Z"/><path class="cls-1" d="M22.07,30.4l-.73-1.8C19.47,24,13.7,24,11.83,28.6l-.73,1.8a2.13,2.13,0,0,1-1.93,1.41H4.63l8.08-15.65a.6.6,0,0,1,1.14.22l.78,4.39a2,2,0,0,0,3.94,0l.79-4.39a.6.6,0,0,1,1.14-.22l8,15.65H24A2.12,2.12,0,0,1,22.07,30.4Z"/><path class="cls-1" d="M24.53,20.06,22,14.61a6,6,0,0,0-10.89,0l-2.5,5.45a1.7,1.7,0,0,1-1.53,1H0L12.35,0l3.24,16.09a1,1,0,0,0,2,0L20.88,0,33.17,21H26.05A1.69,1.69,0,0,1,24.53,20.06Z"/></g></g></svg>