<svg xmlns="http://www.w3.org/2000/svg" viewBox="0 0 38.76 38.76"><defs><style>.cls-1{fill:#005cff;}.cls-2{fill:#fff;}</style></defs><g id="Layer_2" data-name="Layer 2"><g id="Layer_1-2" data-name="Layer 1"><rect class="cls-1" width="38.76" height="38.76" rx="6.59"/><path class="cls-2" d="M24,31.67l-.62-1.53a4.24,4.24,0,0,0-8.06,0l-.62,1.53a1.79,1.79,0,0,1-1.64,1.19H9.24L16.09,19.6a.51.51,0,0,1,1,.18l.66,3.72a1.67,1.67,0,0,0,3.34,0l.67-3.73a.51.51,0,0,1,1-.18l6.82,13.26H25.66A1.79,1.79,0,0,1,24,31.67Z"/><path class="cls-2" d="M26.12,22.9,24,18.29a5.08,5.08,0,0,0-9.23,0L12.64,22.9a1.42,1.42,0,0,1-1.29.83h-6L15.79,5.89l2.75,13.65a.87.87,0,0,0,1.7,0L23,5.89,33.44,23.73h-6A1.41,1.41,0,0,1,26.12,22.9Z"/></g></g></svg>